<svg xmlns="https://www.w3.org/2000/svg" viewBox="0 0 477.713 80">
<path d="M72.165.097H8.163a8 8 0 00-7.999 8v64.001a8 8 0 008 8h64a8 8 0 008-8V8.1a8 8 0 00-8-8.002zm-19.01 55.99c-2.8 3.136-6.999 4.816-12.096 4.816-11.143 0-18.033-8.455-18.033-20.72 0-12.097 6.887-20.888 18.2-20.888 8.454 0 14.055 4.704 15.399 12.15h-3.696c-1.066-5.206-5.207-8.902-11.76-8.902-9.41 0-14.225 7.783-14.225 17.64 0 10.022 4.982 17.415 14.167 17.415 7.728 0 11.927-5.377 12.544-11.985h3.64c-.22 3.923-1.73 7.843-4.14 10.474zM89.515 40.099c0-11.927 7.28-20.833 18.593-20.833 11.367 0 18.705 8.903 18.705 20.833 0 11.927-7.335 20.833-18.705 20.833-11.313 0-18.593-8.906-18.593-20.833zm33.377 0c0-9.687-5.152-17.473-14.784-17.473-9.575 0-14.673 7.783-14.673 17.473 0 9.687 5.095 17.473 14.673 17.473 9.632 0 14.784-7.786 14.784-17.473zM143.61 20.079h15.736c4.368 0 7.28 1.232 9.408 3.472 1.793 1.904 2.8 4.423 2.8 7.728 0 7.392-4.31 11.425-12.71 11.425h-11.48v17.415h-3.75v-40.04zm14.955 19.431c6.496 0 9.184-3.079 9.184-8.119 0-5.152-3.079-8.007-8.848-8.007h-11.537v16.129h11.2zM198.605 42.646L184.156 20.08h4.145l12.208 19.376h.112l12.32-19.376h4.033l-14.56 22.68v17.36h-3.809zM227.22 40.099c0-11.927 7.281-20.833 18.594-20.833 11.367 0 18.704 8.903 18.704 20.833 0 11.927-7.335 20.833-18.704 20.833-11.313 0-18.593-8.906-18.593-20.833zm33.376 0c0-9.687-5.152-17.473-14.785-17.473-9.575 0-14.673 7.783-14.673 17.473 0 9.687 5.095 17.473 14.673 17.473 9.633 0 14.785-7.786 14.785-17.473zM281.317 20.079h3.75v36.568h21.336v3.472h-25.089v-40.04zM318.166 40.099c0-11.927 7.28-20.833 18.593-20.833 11.367 0 18.705 8.903 18.705 20.833 0 11.927-7.335 20.833-18.705 20.833-11.313 0-18.593-8.906-18.593-20.833zm33.375 0c0-9.687-5.152-17.473-14.785-17.473-9.575 0-14.672 7.783-14.672 17.473 0 9.687 5.095 17.473 14.672 17.473 9.633 0 14.785-7.786 14.785-17.473zM370.694 40.127c0-11.815 6.775-20.832 18.929-20.832 8.23 0 14.336 4.256 15.792 12.375h-3.863c-1.232-5.991-5.824-9.127-11.927-9.127-10.304 0-15.009 7.895-15.009 17.584 0 9.857 4.983 17.473 14.504 17.473 9.239 0 13.216-6.384 13.216-13.328v-1.4h-12.88V39.57h16.577v20.552h-2.631l-.784-6.385h-.167c-2.073 3.248-5.994 7.169-13.383 7.169-11.711-.003-18.374-8.794-18.374-20.779zM424.06 20.079h3.75v40.04h-3.75zM458.388 20.079h4.256l15.233 40.04h-4.032l-4.647-12.6h-17.415l-4.705 12.6h-3.808zm9.69 24.36l-5.488-14.952c-.842-2.24-2.016-5.824-2.016-5.824h-.112s-1.066 3.415-1.96 5.824l-5.6 14.951z"/>
<g><path d="M890.521 979.126H826.52a8 8 0 00-8 7.999v64.001a8 8 0 008 8h64.001a8 8 0 008-8v-63.998a8 8 0 00-8-8.002zm-19.01 55.989c-2.8 3.136-6.998 4.816-12.096 4.816-11.143 0-18.032-8.455-18.032-20.72 0-12.097 6.887-20.888 18.199-20.888 8.455 0 14.055 4.704 15.4 12.151h-3.697c-1.065-5.207-5.207-8.903-11.76-8.903-9.409 0-14.225 7.783-14.225 17.64 0 10.022 4.983 17.415 14.167 17.415 7.729 0 11.928-5.376 12.545-11.985h3.639c-.22 3.923-1.73 7.843-4.14 10.474zM907.872 1019.127c0-11.927 7.28-20.833 18.592-20.833 11.368 0 18.705 8.903 18.705 20.833 0 11.927-7.335 20.833-18.705 20.833-11.312 0-18.592-8.906-18.592-20.833zm33.377 0c0-9.687-5.152-17.473-14.785-17.473-9.575 0-14.672 7.783-14.672 17.473 0 9.687 5.095 17.473 14.672 17.473 9.633 0 14.785-7.786 14.785-17.473zM961.967 999.107h15.736c4.368 0 7.28 1.232 9.408 3.472 1.792 1.904 2.8 4.423 2.8 7.728 0 7.393-4.31 11.425-12.711 11.425h-11.48v17.415h-3.75v-40.04zm14.954 19.431c6.496 0 9.185-3.079 9.185-8.119 0-5.152-3.08-8.007-8.849-8.007h-11.536v16.129h11.2zM1016.962 1021.674l-14.449-22.567h4.144l12.209 19.377h.112l12.32-19.377h4.032l-14.56 22.68v17.36h-3.808zM1045.577 1019.127c0-11.927 7.28-20.833 18.593-20.833 11.367 0 18.705 8.903 18.705 20.833 0 11.927-7.335 20.833-18.705 20.833-11.312 0-18.593-8.906-18.593-20.833zm33.375 0c0-9.687-5.152-17.473-14.784-17.473-9.575 0-14.673 7.783-14.673 17.473 0 9.687 5.095 17.473 14.673 17.473 9.632 0 14.784-7.786 14.784-17.473zM1099.673 999.107h3.751v36.568h21.336v3.472h-25.09v-40.04zM1136.523 1019.127c0-11.927 7.28-20.833 18.592-20.833 11.368 0 18.705 8.903 18.705 20.833 0 11.927-7.335 20.833-18.705 20.833-11.312 0-18.592-8.906-18.592-20.833zm33.374 0c0-9.687-5.152-17.473-14.784-17.473-9.575 0-14.673 7.783-14.673 17.473 0 9.687 5.095 17.473 14.673 17.473 9.632 0 14.784-7.786 14.784-17.473zM1189.05 1019.156c0-11.816 6.775-20.833 18.93-20.833 8.23 0 14.336 4.256 15.792 12.375h-3.863c-1.232-5.991-5.824-9.127-11.927-9.127-10.305 0-15.009 7.895-15.009 17.585 0 9.856 4.983 17.472 14.503 17.472 9.24 0 13.217-6.384 13.217-13.328v-1.399h-12.88v-3.303h16.576v20.552h-2.63l-.785-6.384h-.166c-2.074 3.248-5.994 7.168-13.384 7.168-11.71-.003-18.374-8.794-18.374-20.778zM1242.417 999.107h3.75v40.04h-3.75zM1276.745 999.107H1281l15.233 40.04h-4.033l-4.647-12.599h-17.415l-4.704 12.6h-3.808zm9.69 24.36l-5.489-14.952c-.841-2.24-2.016-5.824-2.016-5.824h-.112s-1.065 3.415-1.959 5.824l-5.6 14.952z"/>
</g>
</svg>
